<svg width="699" height="668" viewBox="0 0 699 668" fill="none" xmlns="http://www.w3.org/2000/svg">
<g clip-path="url(#clip0_67_24)">
<g style="mix-blend-mode:color-dodge">
<path d="M526.13 3.45C565.14 3.45 596.88 35.19 596.88 74.2V588.96C596.88 627.97 565.14 659.71 526.13 659.71H168.5C129.49 659.71 97.75 627.97 97.75 588.96V74.19C97.75 35.18 129.49 3.44 168.5 3.44H526.12M526.13 0H168.5C127.52 0 94.3 33.22 94.3 74.19V588.95C94.3 629.93 127.52 663.15 168.5 663.15H526.12C567.1 663.15 600.31 629.93 600.31 588.95V74.19C600.31 33.21 567.09 0 526.12 0H526.13Z" fill="#545454"/>
</g>
<g style="mix-blend-mode:color-dodge">
<path d="M698.48 407.45C698.48 551.26 654.59 667.85 600.44 667.85C546.29 667.85 502.41 551.27 502.41 407.45C502.41 263.63 546.3 147.05 600.44 147.05C654.58 147.05 698.48 263.64 698.48 407.45Z" fill="url(#paint0_radial_67_24)"/>
</g>
<g style="mix-blend-mode:color-dodge">
<path d="M98.03 523.86C152.17 523.86 196.06 407.275 196.06 263.46C196.06 119.645 152.17 3.06 98.03 3.06C43.8895 3.06 0 119.645 0 263.46C0 407.275 43.8895 523.86 98.03 523.86Z" fill="url(#paint1_radial_67_24)"/>
</g>
</g>
<defs>
<radialGradient id="paint0_radial_67_24" cx="0" cy="0" r="1" gradientUnits="userSpaceOnUse" gradientTransform="translate(600.442 407.45) scale(98.0352 260.406)">
<stop stop-color="#828282"/>
<stop offset="0.03" stop-color="#787878"/>
<stop offset="0.16" stop-color="#535353"/>
<stop offset="0.31" stop-color="#353535"/>
<stop offset="0.45" stop-color="#1D1D1D"/>
<stop offset="0.61" stop-color="#0D0D0D"/>
<stop offset="0.78" stop-color="#030303"/>
<stop offset="1"/>
</radialGradient>
<radialGradient id="paint1_radial_67_24" cx="0" cy="0" r="1" gradientUnits="userSpaceOnUse" gradientTransform="translate(98.0296 263.46) scale(98.0288 260.389)">
<stop stop-color="#828282"/>
<stop offset="0.03" stop-color="#787878"/>
<stop offset="0.16" stop-color="#535353"/>
<stop offset="0.31" stop-color="#353535"/>
<stop offset="0.45" stop-color="#1D1D1D"/>
<stop offset="0.61" stop-color="#0D0D0D"/>
<stop offset="0.78" stop-color="#030303"/>
<stop offset="1"/>
</radialGradient>
<clipPath id="clip0_67_24">
<rect width="698.48" height="667.84" fill="white"/>
</clipPath>
</defs>
</svg>
